# xmcd CD database file
#
# Track frame offsets:
#	150
#	16464
#	32114
#	53359
#	70861
#	87967
#	110497
#	134044
#	159314
#	180234
#	205537
#
# Disc length: 3114 seconds
#
# Revision: 0
# Processed by: cddbd v1.4PL0 Copyright (c) Steve Scherf et al.
# Submitted via: CDex 1.50beta9
#
DISCID=860c280b
DTITLE=Little Elmo and The Mambo Kings - Never Pet A Burning Dog
DYEAR=1996
DGENRE=Blues
TTITLE0=Six Bits For A Love Kit
TTITLE1=Since I Met You Baby
TTITLE2=Sneaky Operation
TTITLE3=Hot Damn Boogie
TTITLE4=Pay For Misery
TTITLE5=Baptized By Hard Times
TTITLE6=I Loves Naked Women
TTITLE7=Summertime
TTITLE8=Little Rock
TTITLE9=Freight Train Boogie
TTITLE10=Roses Bounce
EXTD=YEAR: 1996
EXTT0=
EXTT1=
EXTT2=
EXTT3=
EXTT4=
EXTT5=
EXTT6=
EXTT7=
EXTT8=
EXTT9=
EXTT10=
PLAYORDER=
